<svg class="railroad" viewBox="0 0 832 1369" xmlns="http://www.w3.org/2000/svg" xmlns:xlink="http://www.w3.org/1999/xlink">
<style type="text/css">svg.railroad{background-color:hsl(30,20%,95%);background-size:15px 15px;background-image:linear-gradient(to right,rgba(30,30,30,.05) 1px,transparent 1px),linear-gradient(to bottom,rgba(30,30,30,.05) 1px,transparent 1px);}svg.railroad path{stroke-width:3px;stroke:black;fill:transparent;}svg.railroad .debug{stroke-width:1px;stroke:red;}svg.railroad text{font-size:14px;font-family:monospace;text-anchor:middle;}svg.railroad .nonterminal text{font-weight:bold;}svg.railroad text.comment{font-family:serif;font-style:italic;font-size:12px;}svg.railroad rect{stroke-width:3px;stroke:black;}svg.railroad g.labeledbox>rect{stroke-width:1px;stroke:grey;stroke-dasharray:5px;fill:rgba(90,90,150,.1);}svg.railroad .symbol>rect{fill:rgba(90,90,150,.1);}svg.railroad .regex>rect{fill:honeydew;}svg.railroad .string>rect{fill:cornsilk;}svg.railroad .character>rect{fill:lightcoral;}</style>
<g class="verticalgrid">
<g class="sequence">
<path d=" M 10 21 a 5 5 0 0 1 5 -5 a 5 5 0 0 1 5 5 a 5 5 0 0 1 -5 5 a 5 5 0 0 1 -5 -5 m 10 0 h 5"/>
<text class="comment" id="Root" x="54" y="26">
Root</text>
<g class="sequence">
<g class="repeat">
<path d=" M 83 21 h 12 m 162 0 h 12 m -12 0 a 12 12 0 0 1 12 12 v 7 a 12 12 0 0 1 -12 12 m -52 0 h -110 m 58 0 l 5 -5 m 0 10 l -5 -5 m -58 0 a 12 12 0 0 1 -12 -12 v -7 a 12 12 0 0 1 12 -12"/>
<text class="comment" x="231" y="57">
[0, ∞]</text>
<g class="sequence">
<g class="character">
<rect height="22" rx="10" ry="10" width="52" x="95" y="10"/>
<text x="121" y="26">
HIDE</text>
</g>
<a class="link" xlink:href="#Statements">
<g class="symbol">
<rect height="22" width="100" x="157" y="10"/>
<text x="207" y="26">
Statements</text>
</g>
</a>
<path d=" M 147 21 h 10"/>
</g>
</g>
<g class="character">
<rect height="22" rx="10" ry="10" width="52" x="279" y="10"/>
<text x="305" y="26">
HIDE</text>
</g>
<g class="character">
<rect height="22" rx="10" ry="10" width="116" x="341" y="10"/>
<text x="399" y="26">
END_OF_INPUT</text>
</g>
<path d=" M 269 21 h 10"/>
<path d=" M 331 21 h 10"/>
</g>
<path d=" M 467 21 h 5 a 5 5 0 0 1 5 -5 a 5 5 0 0 1 5 5 a 5 5 0 0 1 -5 5 a 5 5 0 0 1 -5 -5"/>
<path d=" M 25 21 h 10"/>
<path d=" M 73 21 h 10"/>
<path d=" M 457 21 h 10"/>
</g>
<g class="sequence">
<path d=" M 10 85 a 5 5 0 0 1 5 -5 a 5 5 0 0 1 5 5 a 5 5 0 0 1 -5 5 a 5 5 0 0 1 -5 -5 m 10 0 h 5"/>
<text class="comment" id="Eos" x="50" y="90">
Eos</text>
<g class="string">
<rect height="22" rx="10" ry="10" width="44" x="76" y="74"/>
<text x="98" y="90">
[;]</text>
</g>
<path d=" M 130 85 h 5 a 5 5 0 0 1 5 -5 a 5 5 0 0 1 5 5 a 5 5 0 0 1 -5 5 a 5 5 0 0 1 -5 -5"/>
<path d=" M 25 85 h 10"/>
<path d=" M 66 85 h 10"/>
<path d=" M 120 85 h 10"/>
</g>
<g class="sequence">
<path d=" M 10 119 a 5 5 0 0 1 5 -5 a 5 5 0 0 1 5 5 a 5 5 0 0 1 -5 5 a 5 5 0 0 1 -5 -5 m 10 0 h 5"/>
<text class="comment" id="Statements" x="75" y="124">
Statements</text>
<g class="choice">
<path d=" M 125 119 h 0 m 100 0 h 0"/>
<a class="link" xlink:href="#Expression">
<g class="symbol">
<rect height="22" width="100" x="125" y="108"/>
<text x="175" y="124">
Expression</text>
</g>
</a>
</g>
<path d=" M 235 119 h 5 a 5 5 0 0 1 5 -5 a 5 5 0 0 1 5 5 a 5 5 0 0 1 -5 5 a 5 5 0 0 1 -5 -5"/>
<path d=" M 25 119 h 10"/>
<path d=" M 115 119 h 10"/>
<path d=" M 225 119 h 10"/>
</g>
<g class="sequence">
<path d=" M 10 166 a 5 5 0 0 1 5 -5 a 5 5 0 0 1 5 5 a 5 5 0 0 1 -5 5 a 5 5 0 0 1 -5 -5 m 10 0 h 5"/>
<text class="comment" id="Expression" x="75" y="171">
Expression</text>
<g class="sequence">
<g class="repeat">
<path d=" M 125 166 h 12 m 114 0 h 12 m -12 0 a 12 12 0 0 1 12 12 v 7 a 12 12 0 0 1 -12 12 m -52 0 h -62 m 34 0 l 5 -5 m 0 10 l -5 -5 m -34 0 a 12 12 0 0 1 -12 -12 v -7 a 12 12 0 0 1 12 -12"/>
<text class="comment" x="225" y="202">
[1, ∞]</text>
<g class="sequence">
<g class="character">
<rect height="22" rx="10" ry="10" width="52" x="137" y="155"/>
<text x="163" y="171">
HIDE</text>
</g>
<a class="link" xlink:href="#Term">
<g class="symbol">
<rect height="22" width="52" x="199" y="155"/>
<text x="225" y="171">
Term</text>
</g>
</a>
<path d=" M 189 166 h 10"/>
</g>
</g>
<g class="character">
<rect height="22" rx="10" ry="10" width="52" x="273" y="155"/>
<text x="299" y="171">
HIDE</text>
</g>
<g class="optional">
<path d=" M 335 166 h 24 m -24 0 a 12 12 0 0 0 12 -12 v 0 a 12 12 0 0 1 12 -12 h 44 a 12 12 0 0 1 12 12 v 0 a 12 12 0 0 0 12 12 h -24"/>
<a class="link" xlink:href="#Eos">
<g class="symbol">
<rect height="22" width="44" x="359" y="155"/>
<text x="381" y="171">
Eos</text>
</g>
</a>
</g>
<path d=" M 263 166 h 10"/>
<path d=" M 325 166 h 10"/>
</g>
<path d=" M 437 166 h 5 a 5 5 0 0 1 5 -5 a 5 5 0 0 1 5 5 a 5 5 0 0 1 -5 5 a 5 5 0 0 1 -5 -5"/>
<path d=" M 25 166 h 10"/>
<path d=" M 115 166 h 10"/>
<path d=" M 427 166 h 10"/>
</g>
<g class="sequence">
<path d=" M 10 230 a 5 5 0 0 1 5 -5 a 5 5 0 0 1 5 5 a 5 5 0 0 1 -5 5 a 5 5 0 0 1 -5 -5 m 10 0 h 5"/>
<text class="comment" id="Term" x="54" y="235">
Term</text>
<g class="choice">
<path d=" M 83 230 h 24 m 68 0 h 48"/>
<a class="link" xlink:href="#Prefix">
<g class="symbol">
<rect height="22" width="68" x="107" y="219"/>
<text x="141" y="235">
Prefix</text>
</g>
</a>
<path d=" M 83 230 a 12 12 0 0 1 12 12 v 9 m 116 0 v -9 a 12 12 0 0 1 12 -12"/>
<path d=" M 95 251 v 33 m 116 0 v -33"/>
<path d=" M 95 284 v 33 m 116 0 v -33"/>
<path d=" M 95 317 v 33 m 116 0 v -33"/>
<path d=" M 95 350 v 33 m 116 0 v -33"/>
<path d=" M 95 251 v 0 a 12 12 0 0 0 12 12 m 60 0 h 32 a 12 12 0 0 0 12 -12 v 0"/>
<a class="link" xlink:href="#Infix">
<g class="symbol">
<rect height="22" width="60" x="107" y="252"/>
<text x="137" y="268">
Infix</text>
</g>
</a>
<path d=" M 95 284 v 0 a 12 12 0 0 0 12 12 m 92 0 h 0 a 12 12 0 0 0 12 -12 v 0"/>
<a class="link" xlink:href="#InfixExpr">
<g class="symbol">
<rect height="22" width="92" x="107" y="285"/>
<text x="153" y="301">
InfixExpr</text>
</g>
</a>
<path d=" M 95 317 v 0 a 12 12 0 0 0 12 12 m 92 0 h 0 a 12 12 0 0 0 12 -12 v 0"/>
<a class="link" xlink:href="#GroupExpr">
<g class="symbol">
<rect height="22" width="92" x="107" y="318"/>
<text x="153" y="334">
GroupExpr</text>
</g>
</a>
<path d=" M 95 350 v 0 a 12 12 0 0 0 12 12 m 68 0 h 24 a 12 12 0 0 0 12 -12 v 0"/>
<a class="link" xlink:href="#Atomic">
<g class="symbol">
<rect height="22" width="68" x="107" y="351"/>
<text x="141" y="367">
Atomic</text>
</g>
</a>
<path d=" M 95 383 v 0 a 12 12 0 0 0 12 12 m 68 0 h 24 a 12 12 0 0 0 12 -12 v 0"/>
<a class="link" xlink:href="#Suffix">
<g class="symbol">
<rect height="22" width="68" x="107" y="384"/>
<text x="141" y="400">
Suffix</text>
</g>
</a>
</g>
<path d=" M 233 230 h 5 a 5 5 0 0 1 5 -5 a 5 5 0 0 1 5 5 a 5 5 0 0 1 -5 5 a 5 5 0 0 1 -5 -5"/>
<path d=" M 25 230 h 10"/>
<path d=" M 73 230 h 10"/>
<path d=" M 223 230 h 10"/>
</g>
<g class="sequence">
<path d=" M 10 429 a 5 5 0 0 1 5 -5 a 5 5 0 0 1 5 5 a 5 5 0 0 1 -5 5 a 5 5 0 0 1 -5 -5 m 10 0 h 5"/>
<text class="comment" id="Prefix" x="61" y="434">
Prefix</text>
<g class="string">
<rect height="22" rx="10" ry="10" width="44" x="97" y="418"/>
<text x="119" y="434">
[!]</text>
</g>
<path d=" M 151 429 h 5 a 5 5 0 0 1 5 -5 a 5 5 0 0 1 5 5 a 5 5 0 0 1 -5 5 a 5 5 0 0 1 -5 -5"/>
<path d=" M 25 429 h 10"/>
<path d=" M 87 429 h 10"/>
<path d=" M 141 429 h 10"/>
</g>
<g class="sequence">
<path d=" M 10 463 a 5 5 0 0 1 5 -5 a 5 5 0 0 1 5 5 a 5 5 0 0 1 -5 5 a 5 5 0 0 1 -5 -5 m 10 0 h 5"/>
<text class="comment" id="Infix" x="57" y="468">
Infix</text>
<g class="string">
<rect height="22" rx="10" ry="10" width="196" x="90" y="452"/>
<text x="188" y="468">
[+\-*/]=?
| [/]{2}</text>
</g>
<path d=" M 296 463 h 5 a 5 5 0 0 1 5 -5 a 5 5 0 0 1 5 5 a 5 5 0 0 1 -5 5 a 5 5 0 0 1 -5 -5"/>
<path d=" M 25 463 h 10"/>
<path d=" M 80 463 h 10"/>
<path d=" M 286 463 h 10"/>
</g>
<g class="sequence">
<path d=" M 10 497 a 5 5 0 0 1 5 -5 a 5 5 0 0 1 5 5 a 5 5 0 0 1 -5 5 a 5 5 0 0 1 -5 -5 m 10 0 h 5"/>
<text class="comment" id="InfixExpr" x="71" y="502">
InfixExpr</text>
<g class="sequence">
<g class="string">
<rect height="22" rx="10" ry="10" width="28" x="118" y="486"/>
<text x="132" y="502">
~</text>
</g>
<g class="character">
<rect height="22" rx="10" ry="10" width="52" x="156" y="486"/>
<text x="182" y="502">
HIDE</text>
</g>
<a class="link" xlink:href="#Expression">
<g class="symbol">
<rect height="22" width="100" x="218" y="486"/>
<text x="268" y="502">
Expression</text>
</g>
</a>
<g class="character">
<rect height="22" rx="10" ry="10" width="52" x="328" y="486"/>
<text x="354" y="502">
HIDE</text>
</g>
<g class="string">
<rect height="22" rx="10" ry="10" width="28" x="390" y="486"/>
<text x="404" y="502">
~</text>
</g>
<path d=" M 146 497 h 10"/>
<path d=" M 208 497 h 10"/>
<path d=" M 318 497 h 10"/>
<path d=" M 380 497 h 10"/>
</g>
<path d=" M 428 497 h 5 a 5 5 0 0 1 5 -5 a 5 5 0 0 1 5 5 a 5 5 0 0 1 -5 5 a 5 5 0 0 1 -5 -5"/>
<path d=" M 25 497 h 10"/>
<path d=" M 108 497 h 10"/>
<path d=" M 418 497 h 10"/>
</g>
<g class="sequence">
<path d=" M 10 531 a 5 5 0 0 1 5 -5 a 5 5 0 0 1 5 5 a 5 5 0 0 1 -5 5 a 5 5 0 0 1 -5 -5 m 10 0 h 5"/>
<text class="comment" id="GroupExpr" x="71" y="536">
GroupExpr</text>
<g class="sequence">
<g class="string">
<rect height="22" rx="10" ry="10" width="28" x="118" y="520"/>
<text x="132" y="536">
(</text>
</g>
<g class="character">
<rect height="22" rx="10" ry="10" width="52" x="156" y="520"/>
<text x="182" y="536">
HIDE</text>
</g>
<a class="link" xlink:href="#Expression">
<g class="symbol">
<rect height="22" width="100" x="218" y="520"/>
<text x="268" y="536">
Expression</text>
</g>
</a>
<g class="character">
<rect height="22" rx="10" ry="10" width="52" x="328" y="520"/>
<text x="354" y="536">
HIDE</text>
</g>
<g class="string">
<rect height="22" rx="10" ry="10" width="28" x="390" y="520"/>
<text x="404" y="536">
)</text>
</g>
<path d=" M 146 531 h 10"/>
<path d=" M 208 531 h 10"/>
<path d=" M 318 531 h 10"/>
<path d=" M 380 531 h 10"/>
</g>
<path d=" M 428 531 h 5 a 5 5 0 0 1 5 -5 a 5 5 0 0 1 5 5 a 5 5 0 0 1 -5 5 a 5 5 0 0 1 -5 -5"/>
<path d=" M 25 531 h 10"/>
<path d=" M 108 531 h 10"/>
<path d=" M 418 531 h 10"/>
</g>
<g class="sequence">
<path d=" M 10 565 a 5 5 0 0 1 5 -5 a 5 5 0 0 1 5 5 a 5 5 0 0 1 -5 5 a 5 5 0 0 1 -5 -5 m 10 0 h 5"/>
<text class="comment" id="Suffix" x="61" y="570">
Suffix</text>
<g class="string">
<rect height="22" rx="10" ry="10" width="28" x="97" y="554"/>
<text x="111" y="570">
&#x27;</text>
</g>
<path d=" M 135 565 h 5 a 5 5 0 0 1 5 -5 a 5 5 0 0 1 5 5 a 5 5 0 0 1 -5 5 a 5 5 0 0 1 -5 -5"/>
<path d=" M 25 565 h 10"/>
<path d=" M 87 565 h 10"/>
<path d=" M 125 565 h 10"/>
</g>
<g class="sequence">
<path d=" M 10 599 a 5 5 0 0 1 5 -5 a 5 5 0 0 1 5 5 a 5 5 0 0 1 -5 5 a 5 5 0 0 1 -5 -5 m 10 0 h 5"/>
<text class="comment" id="FunctionCall" x="82" y="604">
FunctionCall</text>
<g class="sequence">
<g class="string">
<rect height="22" rx="10" ry="10" width="28" x="139" y="588"/>
<text x="153" y="604">
[</text>
</g>
<g class="character">
<rect height="22" rx="10" ry="10" width="52" x="177" y="588"/>
<text x="203" y="604">
HIDE</text>
</g>
<a class="link" xlink:href="#Expression">
<g class="symbol">
<rect height="22" width="100" x="239" y="588"/>
<text x="289" y="604">
Expression</text>
</g>
</a>
<g class="character">
<rect height="22" rx="10" ry="10" width="52" x="349" y="588"/>
<text x="375" y="604">
HIDE</text>
</g>
<g class="repeat">
<path d=" M 411 599 h 12 m 262 0 h 12 m -12 0 a 12 12 0 0 1 12 12 v 7 a 12 12 0 0 1 -12 12 m -52 0 h -210 m 108 0 l 5 -5 m 0 10 l -5 -5 m -108 0 a 12 12 0 0 1 -12 -12 v -7 a 12 12 0 0 1 12 -12"/>
<text class="comment" x="659" y="635">
[0, ∞]</text>
<g class="sequence">
<g class="character">
<rect height="22" rx="10" ry="10" width="52" x="423" y="588"/>
<text x="449" y="604">
HIDE</text>
</g>
<g class="sequence">
<g class="string">
<rect height="22" rx="10" ry="10" width="28" x="485" y="588"/>
<text x="499" y="604">
,</text>
</g>
<g class="character">
<rect height="22" rx="10" ry="10" width="52" x="523" y="588"/>
<text x="549" y="604">
HIDE</text>
</g>
<a class="link" xlink:href="#Expression">
<g class="symbol">
<rect height="22" width="100" x="585" y="588"/>
<text x="635" y="604">
Expression</text>
</g>
</a>
<path d=" M 513 599 h 10"/>
<path d=" M 575 599 h 10"/>
</g>
<path d=" M 475 599 h 10"/>
</g>
</g>
<g class="character">
<rect height="22" rx="10" ry="10" width="52" x="707" y="588"/>
<text x="733" y="604">
HIDE</text>
</g>
<g class="string">
<rect height="22" rx="10" ry="10" width="28" x="769" y="588"/>
<text x="783" y="604">
]</text>
</g>
<path d=" M 167 599 h 10"/>
<path d=" M 229 599 h 10"/>
<path d=" M 339 599 h 10"/>
<path d=" M 401 599 h 10"/>
<path d=" M 697 599 h 10"/>
<path d=" M 759 599 h 10"/>
</g>
<path d=" M 807 599 h 5 a 5 5 0 0 1 5 -5 a 5 5 0 0 1 5 5 a 5 5 0 0 1 -5 5 a 5 5 0 0 1 -5 -5"/>
<path d=" M 25 599 h 10"/>
<path d=" M 129 599 h 10"/>
<path d=" M 797 599 h 10"/>
</g>
<g class="sequence">
<path d=" M 10 663 a 5 5 0 0 1 5 -5 a 5 5 0 0 1 5 5 a 5 5 0 0 1 -5 5 a 5 5 0 0 1 -5 -5 m 10 0 h 5"/>
<text class="comment" id="PartCall" x="68" y="668">
PartCall</text>
<g class="sequence">
<g class="string">
<rect height="22" rx="10" ry="10" width="36" x="111" y="652"/>
<text x="129" y="668">
[[</text>
</g>
<g class="character">
<rect height="22" rx="10" ry="10" width="52" x="157" y="652"/>
<text x="183" y="668">
HIDE</text>
</g>
<a class="link" xlink:href="#Expression">
<g class="symbol">
<rect height="22" width="100" x="219" y="652"/>
<text x="269" y="668">
Expression</text>
</g>
</a>
<g class="character">
<rect height="22" rx="10" ry="10" width="52" x="329" y="652"/>
<text x="355" y="668">
HIDE</text>
</g>
<g class="repeat">
<path d=" M 391 663 h 12 m 262 0 h 12 m -12 0 a 12 12 0 0 1 12 12 v 7 a 12 12 0 0 1 -12 12 m -52 0 h -210 m 108 0 l 5 -5 m 0 10 l -5 -5 m -108 0 a 12 12 0 0 1 -12 -12 v -7 a 12 12 0 0 1 12 -12"/>
<text class="comment" x="639" y="699">
[0, ∞]</text>
<g class="sequence">
<g class="character">
<rect height="22" rx="10" ry="10" width="52" x="403" y="652"/>
<text x="429" y="668">
HIDE</text>
</g>
<g class="sequence">
<g class="string">
<rect height="22" rx="10" ry="10" width="28" x="465" y="652"/>
<text x="479" y="668">
,</text>
</g>
<g class="character">
<rect height="22" rx="10" ry="10" width="52" x="503" y="652"/>
<text x="529" y="668">
HIDE</text>
</g>
<a class="link" xlink:href="#Expression">
<g class="symbol">
<rect height="22" width="100" x="565" y="652"/>
<text x="615" y="668">
Expression</text>
</g>
</a>
<path d=" M 493 663 h 10"/>
<path d=" M 555 663 h 10"/>
</g>
<path d=" M 455 663 h 10"/>
</g>
</g>
<g class="character">
<rect height="22" rx="10" ry="10" width="52" x="687" y="652"/>
<text x="713" y="668">
HIDE</text>
</g>
<g class="string">
<rect height="22" rx="10" ry="10" width="36" x="749" y="652"/>
<text x="767" y="668">
]]</text>
</g>
<path d=" M 147 663 h 10"/>
<path d=" M 209 663 h 10"/>
<path d=" M 319 663 h 10"/>
<path d=" M 381 663 h 10"/>
<path d=" M 677 663 h 10"/>
<path d=" M 739 663 h 10"/>
</g>
<path d=" M 795 663 h 5 a 5 5 0 0 1 5 -5 a 5 5 0 0 1 5 5 a 5 5 0 0 1 -5 5 a 5 5 0 0 1 -5 -5"/>
<path d=" M 25 663 h 10"/>
<path d=" M 101 663 h 10"/>
<path d=" M 785 663 h 10"/>
</g>
<g class="sequence">
<path d=" M 10 727 a 5 5 0 0 1 5 -5 a 5 5 0 0 1 5 5 a 5 5 0 0 1 -5 5 a 5 5 0 0 1 -5 -5 m 10 0 h 5"/>
<text class="comment" id="Atomic" x="61" y="732">
Atomic</text>
<g class="choice">
<path d=" M 97 727 h 24 m 52 0 h 48"/>
<a class="link" xlink:href="#List">
<g class="symbol">
<rect height="22" width="52" x="121" y="716"/>
<text x="147" y="732">
List</text>
</g>
</a>
<path d=" M 97 727 a 12 12 0 0 1 12 12 v 9 m 100 0 v -9 a 12 12 0 0 1 12 -12"/>
<path d=" M 109 748 v 33 m 100 0 v -33"/>
<path d=" M 109 781 v 33 m 100 0 v -33"/>
<path d=" M 109 748 v 0 a 12 12 0 0 0 12 12 m 52 0 h 24 a 12 12 0 0 0 12 -12 v 0"/>
<a class="link" xlink:href="#Dict">
<g class="symbol">
<rect height="22" width="52" x="121" y="749"/>
<text x="147" y="765">
Dict</text>
</g>
</a>
<path d=" M 109 781 v 0 a 12 12 0 0 0 12 12 m 68 0 h 8 a 12 12 0 0 0 12 -12 v 0"/>
<a class="link" xlink:href="#Symbol">
<g class="symbol">
<rect height="22" width="68" x="121" y="782"/>
<text x="155" y="798">
Symbol</text>
</g>
</a>
<path d=" M 109 814 v 0 a 12 12 0 0 0 12 12 m 76 0 h 0 a 12 12 0 0 0 12 -12 v 0"/>
<a class="link" xlink:href="#Integer">
<g class="symbol">
<rect height="22" width="76" x="121" y="815"/>
<text x="159" y="831">
Integer</text>
</g>
</a>
</g>
<path d=" M 231 727 h 5 a 5 5 0 0 1 5 -5 a 5 5 0 0 1 5 5 a 5 5 0 0 1 -5 5 a 5 5 0 0 1 -5 -5"/>
<path d=" M 25 727 h 10"/>
<path d=" M 87 727 h 10"/>
<path d=" M 221 727 h 10"/>
</g>
<g class="sequence">
<path d=" M 10 860 a 5 5 0 0 1 5 -5 a 5 5 0 0 1 5 5 a 5 5 0 0 1 -5 5 a 5 5 0 0 1 -5 -5 m 10 0 h 5"/>
<text class="comment" id="List" x="54" y="865">
List</text>
<g class="sequence">
<g class="string">
<rect height="22" rx="10" ry="10" width="28" x="83" y="849"/>
<text x="97" y="865">
{</text>
</g>
<g class="character">
<rect height="22" rx="10" ry="10" width="52" x="121" y="849"/>
<text x="147" y="865">
HIDE</text>
</g>
<a class="link" xlink:href="#Expression">
<g class="symbol">
<rect height="22" width="100" x="183" y="849"/>
<text x="233" y="865">
Expression</text>
</g>
</a>
<g class="character">
<rect height="22" rx="10" ry="10" width="52" x="293" y="849"/>
<text x="319" y="865">
HIDE</text>
</g>
<g class="repeat">
<path d=" M 355 860 h 12 m 262 0 h 12 m -12 0 a 12 12 0 0 1 12 12 v 7 a 12 12 0 0 1 -12 12 m -52 0 h -210 m 108 0 l 5 -5 m 0 10 l -5 -5 m -108 0 a 12 12 0 0 1 -12 -12 v -7 a 12 12 0 0 1 12 -12"/>
<text class="comment" x="603" y="896">
[0, ∞]</text>
<g class="sequence">
<g class="character">
<rect height="22" rx="10" ry="10" width="52" x="367" y="849"/>
<text x="393" y="865">
HIDE</text>
</g>
<g class="sequence">
<g class="string">
<rect height="22" rx="10" ry="10" width="28" x="429" y="849"/>
<text x="443" y="865">
,</text>
</g>
<g class="character">
<rect height="22" rx="10" ry="10" width="52" x="467" y="849"/>
<text x="493" y="865">
HIDE</text>
</g>
<a class="link" xlink:href="#Expression">
<g class="symbol">
<rect height="22" width="100" x="529" y="849"/>
<text x="579" y="865">
Expression</text>
</g>
</a>
<path d=" M 457 860 h 10"/>
<path d=" M 519 860 h 10"/>
</g>
<path d=" M 419 860 h 10"/>
</g>
</g>
<g class="character">
<rect height="22" rx="10" ry="10" width="52" x="651" y="849"/>
<text x="677" y="865">
HIDE</text>
</g>
<g class="string">
<rect height="22" rx="10" ry="10" width="28" x="713" y="849"/>
<text x="727" y="865">
}</text>
</g>
<path d=" M 111 860 h 10"/>
<path d=" M 173 860 h 10"/>
<path d=" M 283 860 h 10"/>
<path d=" M 345 860 h 10"/>
<path d=" M 641 860 h 10"/>
<path d=" M 703 860 h 10"/>
</g>
<path d=" M 751 860 h 5 a 5 5 0 0 1 5 -5 a 5 5 0 0 1 5 5 a 5 5 0 0 1 -5 5 a 5 5 0 0 1 -5 -5"/>
<path d=" M 25 860 h 10"/>
<path d=" M 73 860 h 10"/>
<path d=" M 741 860 h 10"/>
</g>
<g class="sequence">
<path d=" M 10 924 a 5 5 0 0 1 5 -5 a 5 5 0 0 1 5 5 a 5 5 0 0 1 -5 5 a 5 5 0 0 1 -5 -5 m 10 0 h 5"/>
<text class="comment" id="Dict" x="54" y="929">
Dict</text>
<g class="sequence">
<g class="string">
<rect height="22" rx="10" ry="10" width="36" x="83" y="913"/>
<text x="101" y="929">
&lt;|</text>
</g>
<g class="character">
<rect height="22" rx="10" ry="10" width="52" x="129" y="913"/>
<text x="155" y="929">
HIDE</text>
</g>
<a class="link" xlink:href="#Expression">
<g class="symbol">
<rect height="22" width="100" x="191" y="913"/>
<text x="241" y="929">
Expression</text>
</g>
</a>
<g class="character">
<rect height="22" rx="10" ry="10" width="52" x="301" y="913"/>
<text x="327" y="929">
HIDE</text>
</g>
<g class="repeat">
<path d=" M 363 924 h 12 m 262 0 h 12 m -12 0 a 12 12 0 0 1 12 12 v 7 a 12 12 0 0 1 -12 12 m -52 0 h -210 m 108 0 l 5 -5 m 0 10 l -5 -5 m -108 0 a 12 12 0 0 1 -12 -12 v -7 a 12 12 0 0 1 12 -12"/>
<text class="comment" x="611" y="960">
[0, ∞]</text>
<g class="sequence">
<g class="character">
<rect height="22" rx="10" ry="10" width="52" x="375" y="913"/>
<text x="401" y="929">
HIDE</text>
</g>
<g class="sequence">
<g class="string">
<rect height="22" rx="10" ry="10" width="28" x="437" y="913"/>
<text x="451" y="929">
,</text>
</g>
<g class="character">
<rect height="22" rx="10" ry="10" width="52" x="475" y="913"/>
<text x="501" y="929">
HIDE</text>
</g>
<a class="link" xlink:href="#Expression">
<g class="symbol">
<rect height="22" width="100" x="537" y="913"/>
<text x="587" y="929">
Expression</text>
</g>
</a>
<path d=" M 465 924 h 10"/>
<path d=" M 527 924 h 10"/>
</g>
<path d=" M 427 924 h 10"/>
</g>
</g>
<g class="character">
<rect height="22" rx="10" ry="10" width="52" x="659" y="913"/>
<text x="685" y="929">
HIDE</text>
</g>
<g class="string">
<rect height="22" rx="10" ry="10" width="36" x="721" y="913"/>
<text x="739" y="929">
|&gt;</text>
</g>
<path d=" M 119 924 h 10"/>
<path d=" M 181 924 h 10"/>
<path d=" M 291 924 h 10"/>
<path d=" M 353 924 h 10"/>
<path d=" M 649 924 h 10"/>
<path d=" M 711 924 h 10"/>
</g>
<path d=" M 767 924 h 5 a 5 5 0 0 1 5 -5 a 5 5 0 0 1 5 5 a 5 5 0 0 1 -5 5 a 5 5 0 0 1 -5 -5"/>
<path d=" M 25 924 h 10"/>
<path d=" M 73 924 h 10"/>
<path d=" M 757 924 h 10"/>
</g>
<g class="sequence">
<path d=" M 10 988 a 5 5 0 0 1 5 -5 a 5 5 0 0 1 5 5 a 5 5 0 0 1 -5 5 a 5 5 0 0 1 -5 -5 m 10 0 h 5"/>
<text class="comment" id="Symbol" x="61" y="993">
Symbol</text>
<g class="sequence">
<a class="link" xlink:href="#IDENTIFIER">
<g class="symbol">
<rect height="22" width="100" x="97" y="977"/>
<text x="147" y="993">
IDENTIFIER</text>
</g>
</a>
<g class="repeat">
<path d=" M 207 988 h 12 m 138 0 h 12 m -12 0 a 12 12 0 0 1 12 12 v 7 a 12 12 0 0 1 -12 12 m -52 0 h -86 m 46 0 l 5 -5 m 0 10 l -5 -5 m -46 0 a 12 12 0 0 1 -12 -12 v -7 a 12 12 0 0 1 12 -12"/>
<text class="comment" x="331" y="1024">
[0, ∞]</text>
<g class="sequence">
<g class="string">
<rect height="22" rx="10" ry="10" width="28" x="219" y="977"/>
<text x="233" y="993">
`</text>
</g>
<a class="link" xlink:href="#IDENTIFIER">
<g class="symbol">
<rect height="22" width="100" x="257" y="977"/>
<text x="307" y="993">
IDENTIFIER</text>
</g>
</a>
<path d=" M 247 988 h 10"/>
</g>
</g>
<path d=" M 197 988 h 10"/>
</g>
<path d=" M 379 988 h 5 a 5 5 0 0 1 5 -5 a 5 5 0 0 1 5 5 a 5 5 0 0 1 -5 5 a 5 5 0 0 1 -5 -5"/>
<path d=" M 25 988 h 10"/>
<path d=" M 87 988 h 10"/>
<path d=" M 369 988 h 10"/>
</g>
<g class="sequence">
<path d=" M 10 1052 a 5 5 0 0 1 5 -5 a 5 5 0 0 1 5 5 a 5 5 0 0 1 -5 5 a 5 5 0 0 1 -5 -5 m 10 0 h 5"/>
<text class="comment" id="IDENTIFIER" x="75" y="1057">
IDENTIFIER</text>
<g class="string">
<rect height="22" rx="10" ry="10" width="316" x="125" y="1041"/>
<text x="283" y="1057">
[$\p{XID_start}][$\p{XID_continue}]*</text>
</g>
<path d=" M 451 1052 h 5 a 5 5 0 0 1 5 -5 a 5 5 0 0 1 5 5 a 5 5 0 0 1 -5 5 a 5 5 0 0 1 -5 -5"/>
<path d=" M 25 1052 h 10"/>
<path d=" M 115 1052 h 10"/>
<path d=" M 441 1052 h 10"/>
</g>
<g class="sequence">
<path d=" M 10 1086 a 5 5 0 0 1 5 -5 a 5 5 0 0 1 5 5 a 5 5 0 0 1 -5 5 a 5 5 0 0 1 -5 -5 m 10 0 h 5"/>
<text class="comment" id="String" x="61" y="1091">
String</text>
<g class="sequence">
<g class="string">
<rect height="22" rx="10" ry="10" width="28" x="97" y="1075"/>
<text x="111" y="1091">
&quot;</text>
</g>
<g class="repeat">
<path d=" M 135 1086 h 12 m 52 0 h 12 m -12 0 a 12 12 0 0 1 12 12 v 7 a 12 12 0 0 1 -12 12 m -52 0 h 0 a 12 12 0 0 1 -12 -12 v -7 a 12 12 0 0 1 12 -12"/>
<text class="comment" x="173" y="1122">
[0, ∞]</text>
<a class="link" xlink:href="#TEXT">
<g class="symbol">
<rect height="22" width="52" x="147" y="1075"/>
<text x="173" y="1091">
TEXT</text>
</g>
</a>
</g>
<g class="string">
<rect height="22" rx="10" ry="10" width="28" x="221" y="1075"/>
<text x="235" y="1091">
&quot;</text>
</g>
<path d=" M 125 1086 h 10"/>
<path d=" M 211 1086 h 10"/>
</g>
<path d=" M 259 1086 h 5 a 5 5 0 0 1 5 -5 a 5 5 0 0 1 5 5 a 5 5 0 0 1 -5 5 a 5 5 0 0 1 -5 -5"/>
<path d=" M 25 1086 h 10"/>
<path d=" M 87 1086 h 10"/>
<path d=" M 249 1086 h 10"/>
</g>
<g class="sequence">
<path d=" M 10 1150 a 5 5 0 0 1 5 -5 a 5 5 0 0 1 5 5 a 5 5 0 0 1 -5 5 a 5 5 0 0 1 -5 -5 m 10 0 h 5"/>
<text class="comment" id="TEXT" x="54" y="1155">
TEXT</text>
<g class="string">
<rect height="22" rx="10" ry="10" width="60" x="83" y="1139"/>
<text x="113" y="1155">
[^&quot;]*</text>
</g>
<path d=" M 153 1150 h 5 a 5 5 0 0 1 5 -5 a 5 5 0 0 1 5 5 a 5 5 0 0 1 -5 5 a 5 5 0 0 1 -5 -5"/>
<path d=" M 25 1150 h 10"/>
<path d=" M 73 1150 h 10"/>
<path d=" M 143 1150 h 10"/>
</g>
<g class="sequence">
<path d=" M 10 1184 a 5 5 0 0 1 5 -5 a 5 5 0 0 1 5 5 a 5 5 0 0 1 -5 5 a 5 5 0 0 1 -5 -5 m 10 0 h 5"/>
<text class="comment" id="Integer" x="64" y="1189">
Integer</text>
<g class="string">
<rect height="22" rx="10" ry="10" width="124" x="104" y="1173"/>
<text x="166" y="1189">
0|[1-9][0-9]*</text>
</g>
<path d=" M 238 1184 h 5 a 5 5 0 0 1 5 -5 a 5 5 0 0 1 5 5 a 5 5 0 0 1 -5 5 a 5 5 0 0 1 -5 -5"/>
<path d=" M 25 1184 h 10"/>
<path d=" M 94 1184 h 10"/>
<path d=" M 228 1184 h 10"/>
</g>
<g class="sequence">
<path d=" M 10 1218 a 5 5 0 0 1 5 -5 a 5 5 0 0 1 5 5 a 5 5 0 0 1 -5 5 a 5 5 0 0 1 -5 -5 m 10 0 h 5"/>
<text class="comment" id="WhiteSpace" x="75" y="1223">
WhiteSpace</text>
<g class="string">
<rect height="22" rx="10" ry="10" width="148" x="125" y="1207"/>
<text x="199" y="1223">
\p{White_Space}+</text>
</g>
<path d=" M 283 1218 h 5 a 5 5 0 0 1 5 -5 a 5 5 0 0 1 5 5 a 5 5 0 0 1 -5 5 a 5 5 0 0 1 -5 -5"/>
<path d=" M 25 1218 h 10"/>
<path d=" M 115 1218 h 10"/>
<path d=" M 273 1218 h 10"/>
</g>
<g class="sequence">
<path d=" M 10 1252 a 5 5 0 0 1 5 -5 a 5 5 0 0 1 5 5 a 5 5 0 0 1 -5 5 a 5 5 0 0 1 -5 -5 m 10 0 h 5"/>
<text class="comment" id="Comment" x="64" y="1257">
Comment</text>
<g class="sequence">
<g class="string">
<rect height="22" rx="10" ry="10" width="36" x="104" y="1241"/>
<text x="122" y="1257">
(*</text>
</g>
<g class="repeat">
<path d=" M 150 1252 h 12 m 124 0 h 12 m -12 0 a 12 12 0 0 1 12 12 v 73 m 0 -33 l -5 -5 m 10 0 l -5 5 m 0 33 a 12 12 0 0 1 -12 12 m -52 0 h -72 m 39 0 l 5 -5 m 0 10 l -5 -5 m -39 0 a 12 12 0 0 1 -12 -12 v -73 m 0 39 l -5 5 m 10 0 l -5 -5 m 0 -39 a 12 12 0 0 1 12 -12"/>
<text class="comment" x="260" y="1354">
[0, ∞]</text>
<g class="choice">
<path d=" M 162 1252 h 24 m 76 0 h 24"/>
<a class="link" xlink:href="#Comment">
<g class="symbol">
<rect height="22" width="76" x="186" y="1241"/>
<text x="224" y="1257">
Comment</text>
</g>
</a>
<path d=" M 162 1252 a 12 12 0 0 1 12 12 v 9 m 100 0 v -9 a 12 12 0 0 1 12 -12"/>
<path d=" M 174 1273 v 33 m 100 0 v -33"/>
<path d=" M 174 1273 v 0 a 12 12 0 0 0 12 12 m 36 0 h 40 a 12 12 0 0 0 12 -12 v 0"/>
<g class="string">
<rect height="22" rx="10" ry="10" width="36" x="186" y="1274"/>
<text x="204" y="1290">
*)</text>
</g>
<path d=" M 174 1306 v 0 a 12 12 0 0 0 12 12 m 44 0 h 32 a 12 12 0 0 0 12 -12 v 0"/>
<g class="character">
<rect height="22" rx="10" ry="10" width="44" x="186" y="1307"/>
<text x="208" y="1323">
ANY</text>
</g>
</g>
</g>
<g class="string">
<rect height="22" rx="10" ry="10" width="36" x="308" y="1241"/>
<text x="326" y="1257">
*)</text>
</g>
<path d=" M 140 1252 h 10"/>
<path d=" M 298 1252 h 10"/>
</g>
<path d=" M 354 1252 h 5 a 5 5 0 0 1 5 -5 a 5 5 0 0 1 5 5 a 5 5 0 0 1 -5 5 a 5 5 0 0 1 -5 -5"/>
<path d=" M 25 1252 h 10"/>
<path d=" M 94 1252 h 10"/>
<path d=" M 344 1252 h 10"/>
</g>
</g>
</svg>